<svg width="64" height="64" viewBox="0 0 64 64" fill="none" xmlns="http://www.w3.org/2000/svg">
<rect width="64" height="64" rx="11.0924" fill="white"/>
<g clip-path="url(#clip0_20004_29289)">
<path fill-rule="evenodd" clip-rule="evenodd" d="M46.3697 9.23804V23.1991H51.5821V43.0656H45.9474V55.3141L32.4375 43.4227V55.2201H30.3429V43.4092L16.8177 55.3141V42.9024H11.2655V23.0378H16.8023V9.23804L30.3429 21.7055V9.60281H32.4355V22.0625L46.3697 9.23804ZM32.4375 26.601V40.6523L43.8528 50.7008V36.9605L32.4375 26.601ZM30.3276 26.4475L18.9122 36.8107V50.7008L30.3276 40.6523V26.4494V26.4475ZM45.9474 40.9998H49.4875V25.2668H34.2268L45.9474 35.9027V40.9998ZM28.7034 25.1036H13.3581V40.8366H16.8138V35.8911L28.7015 25.1016L28.7034 25.1036ZM18.8969 13.9916V23.034H28.7168L18.8969 13.9916ZM44.2752 13.9916L34.4552 23.034H44.2752V13.9916Z" fill="black"/>
</g>
<defs>
<clipPath id="clip0_20004_29289">
<rect width="46.0761" height="46.0761" fill="white" transform="translate(8.38623 9.23816)"/>
</clipPath>
</defs>
</svg>
